GIL02_slow1_ik
nRows=3
nColumns=375

# SIMM Motion File Header:
name GIL02_slow1_ik
datacolumns 375
datarows 3
otherdata 1
range 0.47500000 0.49167000
endheader
time	pelvis_tx	pelvis_ty	pelvis_tz	pelvis_tilt	pelvis_list	pelvis_rotation	hip_flexion_r	hip_adduction_r	hip_rotation_r	knee_angle_r	ankle_angle_r	hip_flexion_l	hip_adduction_l	hip_rotation_l	knee_angle_l	ankle_angle_l	lumbar_extension	lumbar_bending	lumbar_rotation	subtalar_angle_r	mtp_angle_r	subtalar_angle_l	mtp_angle_l	asis_r_px	asis_r_py	asis_r_pz	asis_l_px	asis_l_py	asis_l_pz	midasis_px	midasis_py	midasis_pz	psis_r_px	psis_r_py	psis_r_pz	psis_l_px	psis_l_py	psis_l_pz	hip_r_px	hip_r_py	hip_r_pz	hip_l_px	hip_l_py	hip_l_pz	midhip_px	midhip_py	midhip_pz	epicondLat_r_px	epicondLat_r_py	epicondLat_r_pz	epicondMed_r_px	epicondMed_r_py	epicondMed_r_pz	thighwand_r_px	thighwand_r_py	thighwand_r_pz	upperleg1_r_px	upperleg1_r_py	upperleg1_r_pz	upperleg2_r_px	upperleg2_r_py	upperleg2_r_pz	malleolusLat_r_px	malleolusLat_r_py	malleolusLat_r_pz	malleolusMedv_r_px	malleolusMedv_r_py	malleolusMedv_r_pz	shankwand_r_px	shankwand_r_py	shankwand_r_pz	lowerleg1_r_px	lowerleg1_r_py	lowerleg1_r_pz	knee_r_px	knee_r_py	knee_r_pz	ankle_r_px	ankle_r_py	ankle_r_pz	toe_r_px	toe_r_py	toe_r_pz	epicondLat_l_px	epicondLat_l_py	epicondLat_l_pz	epicondMed_l_px	epicondMed_l_py	epicondMed_l_pz	thighwand_l_px	thighwand_l_py	thighwand_l_pz	upperleg1_l_px	upperleg1_l_py	upperleg1_l_pz	upperleg2_l_px	upperleg2_l_py	upperleg2_l_pz	malleolusLat_l_px	malleolusLat_l_py	malleolusLat_l_pz	malleolusMedv_l_px	malleolusMedv_l_py	malleolusMedv_l_pz	shankwand_l_px	shankwand_l_py	shankwand_l_pz	lowerleg1_l_px	lowerleg1_l_py	lowerleg1_l_pz	knee_l_px	knee_l_py	knee_l_pz	ankle_l_px	ankle_l_py	ankle_l_pz	toe_l_px	toe_l_py	toe_l_pz	subclavicle_r_px	subclavicle_r_py	subclavicle_r_pz	subclavicle_l_px	subclavicle_l_py	subclavicle_l_pz	neck_px	neck_py	neck_pz	sternalnotch_px	sternalnotch_py	sternalnotch_pz	xyphoidprocess_px	xyphoidprocess_py	xyphoidprocess_pz	midhip_tx	midhip_ty	midhip_tz	hip_r_tx	hip_r_ty	hip_r_tz	hip_l_tx	hip_l_ty	hip_l_tz	knee_r_tx	knee_r_ty	knee_r_tz	knee_l_tx	knee_l_ty	knee_l_tz	ankle_r_tx	ankle_r_ty	ankle_r_tz	ankle_l_tx	ankle_l_ty	ankle_l_tz	midasis_tx	midasis_ty	midasis_tz	asis_r_tx	asis_r_ty	asis_r_tz	asis_l_tx	asis_l_ty	asis_l_tz	psis_r_tx	psis_r_ty	psis_r_tz	psis_l_tx	psis_l_ty	psis_l_tz	epicondLat_r_tx	epicondLat_r_ty	epicondLat_r_tz	epicondLat_l_tx	epicondLat_l_ty	epicondLat_l_tz	epicondMed_r_tx	epicondMed_r_ty	epicondMed_r_tz	epicondMed_l_tx	epicondMed_l_ty	epicondMed_l_tz	malleolusLat_r_tx	malleolusLat_r_ty	malleolusLat_r_tz	malleolusLat_l_tx	malleolusLat_l_ty	malleolusLat_l_tz	malleolusMedv_r_tx	malleolusMedv_r_ty	malleolusMedv_r_tz	malleolusMedv_l_tx	malleolusMedv_l_ty	malleolusMedv_l_tz	neck_tx	neck_ty	neck_tz	subclavicle_r_tx	subclavicle_r_ty	subclavicle_r_tz	subclavicle_l_tx	subclavicle_l_ty	subclavicle_l_tz	sternalnotch_tx	sternalnotch_ty	sternalnotch_tz	xyphoidprocess_tx	xyphoidprocess_ty	xyphoidprocess_tz	thighwand_r_tx	thighwand_r_ty	thighwand_r_tz	thighwand_l_tx	thighwand_l_ty	thighwand_l_tz	upperleg1_r_tx	upperleg1_r_ty	upperleg1_r_tz	upperleg1_l_tx	upperleg1_l_ty	upperleg1_l_tz	upperleg2_r_tx	upperleg2_r_ty	upperleg2_r_tz	upperleg2_l_tx	upperleg2_l_ty	upperleg2_l_tz	shankwand_r_tx	shankwand_r_ty	shankwand_r_tz	shankwand_l_tx	shankwand_l_ty	shankwand_l_tz	lowerleg1_r_tx	lowerleg1_r_ty	lowerleg1_r_tz	lowerleg1_l_tx	lowerleg1_l_ty	lowerleg1_l_tz	toe_r_tx	toe_r_ty	toe_r_tz	toe_l_tx	toe_l_ty	toe_l_tz	ground_force_vx	ground_force_vy	ground_force_vz	ground_force_px	ground_force_py	ground_force_pz	ground_force_vx	ground_force_vy	ground_force_vz	ground_force_px	ground_force_py	ground_force_pz	ground_torque_x	ground_torque_y	ground_torque_z	ground_torque_x	ground_torque_y	ground_torque_z	ground_marker_px	ground_marker_py	ground_marker_pz	ground_marker_px	ground_marker_py	ground_marker_pz	ground_marker_px	ground_marker_py	ground_marker_pz	ground_marker_px	ground_marker_py	ground_marker_pz	ground_marker_px	ground_marker_py	ground_marker_pz	ground_marker_px	ground_marker_py	ground_marker_pz	ground_marker_px	ground_marker_py	ground_marker_pz	ground_marker_px	ground_marker_py	ground_marker_pz	ground_marker_px	ground_marker_py	ground_marker_pz	ground_marker_px	ground_marker_py	ground_marker_pz	ground_marker_px	ground_marker_py	ground_marker_pz	ground_marker_px	ground_marker_py	ground_marker_pz	ground_marker_px	ground_marker_py	ground_marker_pz	ground_marker_px	ground_marker_py	ground_marker_pz	ground_marker_px	ground_marker_py	ground_marker_pz	ground_marker_px	ground_marker_py	ground_marker_pz	ground_marker_px	ground_marker_py	ground_marker_pz	ground_marker_px	ground_marker_py	ground_marker_pz	ground_marker_px	ground_marker_py	ground_marker_pz	ground_marker_px	ground_marker_py	ground_marker_pz	ground_marker_px	ground_marker_py	ground_marker_pz	ground_marker_px	ground_marker_py	ground_marker_pz	ground_marker_px	ground_marker_py	ground_marker_pz	ground_marker_px	ground_marker_py	ground_marker_pz	ground_marker_px	ground_marker_py	ground_marker_pz	ground_marker_px	ground_marker_py	ground_marker_pz	ground_marker_px	ground_marker_py	ground_marker_pz	ground_marker_px	ground_marker_py	ground_marker_pz	ground_marker_px	ground_marker_py	ground_marker_pz	ground_marker_px	ground_marker_py	ground_marker_pz	ground_marker_px	ground_marker_py	ground_marker_pz	ground_marker_px	ground_marker_py	ground_marker_pz	ground_marker_px	ground_marker_py	ground_marker_pz	ground_marker_px	ground_marker_py	ground_marker_pz	ground_marker_px	ground_marker_py	ground_marker_pz	ground_marker_px	ground_marker_py	ground_marker_pz	ground_marker_px	ground_marker_py	ground_marker_pz
      0.47500000	      0.91757382	      0.94943685	     -0.18884888	      1.39044367	      3.03620858	      2.13386799	     -5.47289911	     -0.33330370	     11.02085215	     -5.99541783	     10.58189904	     21.07141779	      2.73319556	     -0.18385033	    -28.08387279	      2.56852268	     -4.73450833	     -0.27660939	      4.72664585	      0.00000000	      0.00000000	      0.00000000	      0.00000000	      0.96839599	      0.94475815	     -0.07349282	      0.96131824	      0.96365506	     -0.31079613	      0.93058486	      0.94977836	     -0.18933316	      0.77887171	      0.99929722	     -0.15055547	      0.78111998	      1.00276812	     -0.23643155	      0.85634950	      0.88228191	     -0.11214124	      0.85036677	      0.89036258	     -0.26717964	      0.85335813	      0.88632225	     -0.18966044	      0.86552741	      0.45108627	     -0.06249531	      0.81227780	      0.46488500	     -0.16015502	      0.94014916	      0.55770546	     -0.00303158	      0.93957303	      0.62520201	     -0.07127850	      0.92261122	      0.53963266	     -0.09220022	      0.74589318	      0.05746477	     -0.09139992	      0.75379520	      0.07347218	     -0.16101055	      0.81222150	      0.17709266	     -0.00670484	      0.77751263	      0.15374230	     -0.07595037	      0.82272354	      0.46448943	     -0.12940985	      0.75434350	      0.07281399	     -0.13692307	      0.87691458	      0.03258918	     -0.13406913	      1.02745722	      0.49099539	     -0.34385153	      1.01984953	      0.49212793	     -0.23345393	      1.13019968	      0.64262283	     -0.28359392	      1.04540873	      0.67331955	     -0.32174980	      1.05877491	      0.58739584	     -0.32243869	      0.94633755	      0.09372610	     -0.31429128	      0.97593824	      0.10395659	     -0.25498777	      0.98404903	      0.22816697	     -0.40079071	      0.96752133	      0.19258029	     -0.32953213	      1.01253558	      0.50076072	     -0.27357736	      0.97410516	      0.10495538	     -0.27535723	      1.08255139	      0.06370063	     -0.32528196	      0.88446167	      1.34616841	     -0.11527135	      0.88449270	      1.35518363	     -0.22322604	      0.75219609	      1.41860818	     -0.15414253	      0.86713220	      1.35768766	     -0.16576604	      0.95486827	      1.19867123	     -0.19078194	      0.85279400	      0.89370500	     -0.18142900	      0.85269600	      0.86906200	     -0.11182200	      0.84768900	      0.87639300	     -0.26198900	      0.82646800	      0.46779100	     -0.12096000	      1.01298100	      0.48201300	     -0.26880500	      0.74962300	      0.06920900	     -0.15978600	      0.97598000	      0.09040700	     -0.26854800	      0.93416500	      0.96196000	     -0.18534900	      0.93812900	      0.95615500	     -0.06644200	      0.93020000	      0.96776500	     -0.30425600	      0.74672200	      0.99688100	     -0.14634500	      0.74886300	      0.99613100	     -0.23203800	      0.83968100	      0.46563100	     -0.06401300	      1.01188700	      0.48255700	     -0.32679200	      0.80581500	      0.47065100	     -0.17150700	      1.01877500	      0.45925100	     -0.21477700	      0.73992300	      0.06730300	     -0.12102700	      0.95196200	      0.09265600	     -0.29919300	      0.76059300	      0.08407200	     -0.18716000	      0.98531900	      0.10373700	     -0.24303300	      0.75998400	      1.43010300	     -0.15462000	      0.88101600	      1.34298500	     -0.11674100	      0.87850600	      1.34898500	     -0.22141300	      0.86371700	      1.35525400	     -0.16525900	      0.92868800	      1.18548300	     -0.18829900	      0.89799600	      0.56233900	      0.00933600	      1.12700600	      0.61100800	     -0.28473500	      0.90694300	      0.63049400	     -0.05326700	      1.03947200	      0.63481600	     -0.31570200	      0.89803200	      0.54579200	     -0.08064200	      1.05061400	      0.54771900	     -0.31271700	      0.78921400	      0.18296900	     -0.02398000	      0.97202300	      0.22998100	     -0.38522700	      0.76857700	      0.16081200	     -0.09813200	      0.96587500	      0.19153400	     -0.31322300	      0.87124100	      0.03870100	     -0.13993500	      1.08399000	      0.05737600	     -0.30590500	    -12.47133294	    616.89915832	    -16.78738684	      0.84846503	      0.00000000	     -0.13417799	      0.00000000	      0.00000000	      0.00000000	      1.20115857	      0.00000000	     -0.21318475	      0.00000000	      1.33573328	      0.00000000	      0.00000000	      0.00000000	      0.00000000	      0.85279393	      0.89370537	     -0.18142918	      0.85269558	      0.86906213	     -0.11182200	      0.84768909	      0.87639332	     -0.26198915	      0.82646799	      0.46779138	     -0.12095997	      1.01298106	      0.48201323	     -0.26880479	      0.74962330	      0.06920879	     -0.15978567	      0.97597963	      0.09040694	     -0.26854822	      0.93416476	      0.96196002	     -0.18534882	      0.93812901	      0.95615494	     -0.06644172	      0.93020046	      0.96776509	     -0.30425593	      0.74672246	      0.99688125	     -0.14634487	      0.74886304	      0.99613059	     -0.23203848	      0.83968079	      0.46563095	     -0.06401259	      1.01188684	      0.48255670	     -0.32679191	      0.80581486	      0.47065070	     -0.17150676	      1.01877475	      0.45925111	     -0.21477689	      0.73992288	      0.06730348	     -0.12102655	      0.95196193	      0.09265621	     -0.29919282	      0.76059282	      0.08407249	     -0.18715957	      0.98531908	      0.10373718	     -0.24303269	      0.75998420	      1.43010342	     -0.15462042	      0.88101631	      1.34298503	     -0.11674131	      0.87850618	      1.34898508	     -0.22141331	      0.86371744	      1.35525393	     -0.16525900	      0.92868799	      1.18548274	     -0.18829913	      0.89799559	      0.56233913	      0.00933624	      1.12700582	      0.61100751	     -0.28473490	      0.90694332	      0.63049352	     -0.05326669	      1.03947210	      0.63481575	     -0.31570196	      0.89803201	      0.54579192	     -0.08064155	      1.05061448	      0.54771942	     -0.31271735	      0.78921425	      0.18296851	     -0.02397954	      0.97202259	      0.22998123	     -0.38522726	      0.76857668	      0.16081248	     -0.09813164	      0.96587485	      0.19153355	     -0.31322327	      0.87124091	      0.03870057	     -0.13993543	      1.08399010	      0.05737555	     -0.30590498
      0.48333000	      0.92342547	      0.94848422	     -0.18867258	      1.27469638	      3.05060916	      2.03198591	     -5.81804842	     -0.35861382	     11.21115606	     -5.80542620	     10.80158062	     21.33919642	      2.78293483	     -0.20898069	    -26.02814612	      1.93447771	     -4.60369350	     -0.30124192	      4.96698059	      0.00000000	      0.00000000	      0.00000000	      0.00000000	      0.97403341	      0.94366451	     -0.07322818	      0.96741559	      0.96264533	     -0.31053806	      0.93643804	      0.94879835	     -0.18913374	      0.78476154	      0.99862667	     -0.15060992	      0.78716911	      1.00211778	     -0.23648087	      0.86192365	      0.88143661	     -0.11209314	      0.85623239	      0.88957499	     -0.26713950	      0.85907802	      0.88550580	     -0.18961632	      0.86776088	      0.45018739	     -0.06240746	      0.81443868	      0.46439830	     -0.15996840	      0.94334145	      0.55621588	     -0.00309869	      0.94317411	      0.62370686	     -0.07135335	      0.92549192	      0.53827285	     -0.09223171	      0.74621572	      0.05726109	     -0.09135269	      0.75407608	      0.07327537	     -0.16096645	      0.81325358	      0.17651889	     -0.00669432	      0.77831751	      0.15337768	     -0.07589580	      0.82491157	      0.46394106	     -0.12923534	      0.75466191	      0.07259918	     -0.13688035	      0.87719461	      0.03224744	     -0.13417384	      1.03449645	      0.49062582	     -0.34326603	      1.02667139	      0.49179392	     -0.23288400	      1.13673192	      0.64254676	     -0.28288550	      1.05193672	      0.67300650	     -0.32122142	      1.06552482	      0.58711708	     -0.32184103	      0.96853961	      0.09128527	     -0.31397717	      0.99759665	      0.10262562	     -0.25460669	      1.00124427	      0.22710532	     -0.40035991	      0.98594188	      0.19088567	     -0.32914660	      1.01895846	      0.50054930	     -0.27301522	      0.99577071	      0.10356013	     -0.27497984	      1.10551131	      0.06525687	     -0.32442553	      0.89048879	      1.34542556	     -0.11532451	      0.89026614	      1.35446154	     -0.22327724	      0.75810666	      1.41782386	     -0.15387488	      0.87303802	      1.35694810	     -0.16577665	      0.96077459	      1.19796895	     -0.19102665	      0.85823500	      0.89291500	     -0.18105700	      0.85813500	      0.86838700	     -0.11196200	      0.85338200	      0.87572500	     -0.26213700	      0.82872100	      0.46739000	     -0.12086300	      1.01985800	      0.48144900	     -0.26832800	      0.74991500	      0.06921200	     -0.15975300	      0.99797300	      0.08857100	     -0.26823300	      0.93991000	      0.96111700	     -0.18536100	      0.94367500	      0.95530500	     -0.06641100	      0.93614500	      0.96692800	     -0.30431100	      0.75243600	      0.99647900	     -0.14639900	      0.75483200	      0.99558600	     -0.23223900	      0.84203200	      0.46515000	     -0.06394100	      1.01885900	      0.48193800	     -0.32631800	      0.80810200	      0.47071600	     -0.17094900	      1.02445200	      0.45800400	     -0.21451700	      0.74016000	      0.06735800	     -0.12100500	      0.97411100	      0.08989300	     -0.29905300	      0.76075200	      0.08406400	     -0.18728500	      1.00696700	      0.10212600	     -0.24272800	      0.76580000	      1.42936600	     -0.15438200	      0.88709800	      1.34238600	     -0.11656400	      0.88434500	      1.34851400	     -0.22147400	      0.86971600	      1.35461300	     -0.16525400	      0.93489000	      1.18505700	     -0.18852800	      0.90132300	      0.56169500	      0.00934200	      1.13260100	      0.61043000	     -0.28407300	      0.91071000	      0.62998500	     -0.05312500	      1.04502500	      0.63386100	     -0.31482200	      0.90105200	      0.54521300	     -0.08036200	      1.05612100	      0.54690500	     -0.31219000	      0.78996000	      0.18287800	     -0.02377600	      0.98948100	      0.22797000	     -0.38506900	      0.76923800	      0.16074700	     -0.09851500	      0.98417400	      0.18954300	     -0.31283500	      0.87122400	      0.03863500	     -0.13990400	      1.10758300	      0.05845900	     -0.30400000	    -10.16336901	    618.90611545	    -17.42868905	      0.85000439	      0.00000000	     -0.13370879	      0.00000000	      0.00000000	      0.00000000	      1.20164917	      0.00000000	     -0.21372679	      0.00000000	      1.38701587	      0.00000000	      0.00000000	      0.00000000	      0.00000000	      0.85823536	      0.89291513	     -0.18105671	      0.85813481	      0.86838734	     -0.11196156	      0.85338151	      0.87572491	     -0.26213664	      0.82872128	      0.46739015	     -0.12086276	      1.01985824	      0.48144889	     -0.26832840	      0.74991465	      0.06921217	     -0.15975265	      0.99797338	      0.08857146	     -0.26823339	      0.93991035	      0.96111655	     -0.18536118	      0.94367534	      0.95530462	     -0.06641101	      0.93614537	      0.96692842	     -0.30431134	      0.75243586	      0.99647892	     -0.14639878	      0.75483227	      0.99558550	     -0.23223941	      0.84203160	      0.46515030	     -0.06394115	      1.01885915	      0.48193768	     -0.32631776	      0.80810153	      0.47071597	     -0.17094879	      1.02445233	      0.45800409	     -0.21451701	      0.74016047	      0.06735819	     -0.12100451	      0.97411090	      0.08989324	     -0.29905280	      0.76075220	      0.08406419	     -0.18728498	      1.00696707	      0.10212573	     -0.24272814	      0.76580018	      1.42936587	     -0.15438165	      0.88709807	      1.34238589	     -0.11656406	      0.88434458	      1.34851444	     -0.22147407	      0.86971623	      1.35461318	     -0.16525398	      0.93489027	      1.18505669	     -0.18852836	      0.90132278	      0.56169456	      0.00934151	      1.13260055	      0.61043048	     -0.28407288	      0.91070950	      0.62998503	     -0.05312461	      1.04502511	      0.63386095	     -0.31482178	      0.90105236	      0.54521310	     -0.08036187	      1.05612135	      0.54690468	     -0.31219035	      0.78996032	      0.18287759	     -0.02377630	      0.98948079	      0.22797009	     -0.38506877	      0.76923776	      0.16074660	     -0.09851485	      0.98417383	      0.18954307	     -0.31283545	      0.87122416	      0.03863548	     -0.13990447	      1.10758281	      0.05845881	     -0.30400050
      0.49167000	      0.92940269	      0.94755460	     -0.18843013	      1.16904696	      3.03645037	      1.92005128	     -6.17627625	     -0.34861395	     11.39956258	     -5.62902819	     11.01568779	     21.54538040	      2.78992713	     -0.24059077	    -23.94521970	      1.19424854	     -4.46932966	     -0.31426268	      5.42554260	      0.00000000	      0.00000000	      0.00000000	      0.00000000	      0.97977530	      0.94266028	     -0.07288599	      0.97365854	      0.96160475	     -0.31021222	      0.94241672	      0.94784329	     -0.18886590	      0.79076253	      0.99797489	     -0.15064897	      0.79334481	      1.00144349	     -0.23651575	      0.86762075	      0.88064277	     -0.11195749	      0.86224856	      0.88876007	     -0.26701633	      0.86493466	      0.88470142	     -0.18948691	      0.87006611	      0.44935927	     -0.06228660	      0.81670102	      0.46400156	     -0.15976026	      0.94659467	      0.55477420	     -0.00309992	      0.94685950	      0.62226607	     -0.07135340	      0.92845588	      0.53697774	     -0.09220392	      0.74649564	      0.05717197	     -0.09133592	      0.75433668	      0.07319724	     -0.16094934	      0.81425841	      0.17602683	     -0.00668803	      0.77910594	      0.15311347	     -0.07585573	      0.82719504	      0.46347597	     -0.12903731	      0.75495378	      0.07250045	     -0.13686460	      0.87743039	      0.03197078	     -0.13428088	      1.04129941	      0.49007557	     -0.34268158	      1.03328671	      0.49127507	     -0.23231334	      1.14318198	      0.64218953	     -0.28219062	      1.05840119	      0.67249367	     -0.32068142	      1.07213221	      0.58662658	     -0.32124344	      0.99039510	      0.08926844	     -0.31363357	      1.01888795	      0.10168207	     -0.25420437	      1.01807982	      0.22626541	     -0.39991244	      1.00402971	      0.18946374	     -0.32873945	      1.02515221	      0.50013693	     -0.27245092	      1.01706637	      0.10255422	     -0.27458068	      1.12794171	      0.06698239	     -0.32353292	      0.89673851	      1.34472294	     -0.11561632	      0.89587030	      1.35377064	     -0.22356481	      0.76407563	      1.41702476	     -0.15337451	      0.87898080	      1.35623776	     -0.16596302	      0.96668725	      1.19732818	     -0.19174987	      0.86392600	      0.89230800	     -0.18065200	      0.86362900	      0.86769100	     -0.11204500	      0.85914400	      0.87496800	     -0.26223100	      0.83100500	      0.46702700	     -0.12081600	      1.02643400	      0.48071500	     -0.26793600	      0.75017300	      0.06924800	     -0.15966500	      1.01956600	      0.08715600	     -0.26783300	      0.94570200	      0.96023300	     -0.18534700	      0.94925500	      0.95446700	     -0.06634900	      0.94214900	      0.96600000	     -0.30434600	      0.75815400	      0.99602700	     -0.14649400	      0.76082900	      0.99495300	     -0.23249000	      0.84440100	      0.46469100	     -0.06391800	      1.02551100	      0.48116200	     -0.32592700	      0.81049100	      0.47147300	     -0.17171600	      1.02922500	      0.45734200	     -0.21381200	      0.74036400	      0.06745800	     -0.12092800	      0.99587100	      0.08756200	     -0.29880700	      0.76087400	      0.08417800	     -0.18739800	      1.02823100	      0.10110300	     -0.24205400	      0.77160300	      1.42861000	     -0.15396800	      0.89334600	      1.34164900	     -0.11701900	      0.89015400	      1.34800100	     -0.22110500	      0.87575800	      1.35391300	     -0.16531400	      0.94110900	      1.18456800	     -0.18920700	      0.90468000	      0.56102100	      0.00936700	      1.13800800	      0.60954200	     -0.28350800	      0.91465300	      0.62916100	     -0.05304300	      1.05036900	      0.63313800	     -0.31456400	      0.90415200	      0.54452900	     -0.08075300	      1.06133100	      0.54564100	     -0.31165300	      0.79069000	      0.18284800	     -0.02353700	      1.00650300	      0.22622800	     -0.38489200	      0.76916200	      0.16078300	     -0.09881000	      1.00245600	      0.18812700	     -0.31273700	      0.87120100	      0.03857700	     -0.13986600	      1.13070100	      0.05976600	     -0.30204800	     -7.90548333	    621.18580175	    -18.25789016	      0.85152423	      0.00000000	     -0.13321777	      0.00000000	      0.00000000	      0.00000000	      1.20206934	      0.00000000	     -0.21424910	      0.00000000	      1.41566211	      0.00000000	      0.00000000	      0.00000000	      0.00000000	      0.86392641	      0.89230824	     -0.18065177	      0.86362886	      0.86769080	     -0.11204455	      0.85914421	      0.87496817	     -0.26223081	      0.83100504	      0.46702725	     -0.12081599	      1.02643418	      0.48071501	     -0.26793596	      0.75017267	      0.06924766	     -0.15966521	      1.01956606	      0.08715627	     -0.26783279	      0.94570184	      0.96023345	     -0.18534744	      0.94925517	      0.95446730	     -0.06634910	      0.94214851	      0.96599966	     -0.30434576	      0.75815386	      0.99602723	     -0.14649418	      0.76082879	      0.99495256	     -0.23248976	      0.84440136	      0.46469083	     -0.06391845	      1.02551115	      0.48116249	     -0.32592690	      0.81049103	      0.47147301	     -0.17171644	      1.02922451	      0.45734197	     -0.21381173	      0.74036402	      0.06745756	     -0.12092781	      0.99587148	      0.08756165	     -0.29880702	      0.76087379	      0.08417818	     -0.18739785	      1.02823102	      0.10110253	     -0.24205360	      0.77160281	      1.42860985	     -0.15396753	      0.89334613	      1.34164906	     -0.11701927	      0.89015424	      1.34800100	     -0.22110519	      0.87575847	      1.35391307	     -0.16531363	      0.94110858	      1.18456841	     -0.18920721	      0.90467995	      0.56102091	      0.00936686	      1.13800836	      0.60954237	     -0.28350836	      0.91465330	      0.62916118	     -0.05304284	      1.05036938	      0.63313842	     -0.31456366	      0.90415245	      0.54452950	     -0.08075297	      1.06133103	      0.54564053	     -0.31165278	      0.79068983	      0.18284753	     -0.02353702	      1.00650299	      0.22622779	     -0.38489169	      0.76916182	      0.16078262	     -0.09881014	      1.00245583	      0.18812650	     -0.31273666	      0.87120062	      0.03857657	     -0.13986580	      1.13070107	      0.05976561	     -0.30204824
